<svg width="1421" height="513" viewBox="0 0 1421 513" fill="none" xmlns="http://www.w3.org/2000/svg">
<g filter="url(#filter0_d_11_6)">
<mask id="path-1-outside-1_11_6" maskUnits="userSpaceOnUse" x="86" y="128" width="1261" height="310" fill="black">
<rect fill="white" x="86" y="128" width="1261" height="310"/>
<path d="M178.731 256.84L247.611 354H205.891L145.971 266.92L130.571 354H98.6509L133.091 159.4H165.011L149.331 248.16L240.611 159.4H280.651L178.731 256.84ZM322.878 179.28C317.838 179.28 313.732 177.693 310.558 174.52C307.385 171.347 305.798 167.333 305.798 162.48C305.798 155.947 308.225 150.347 313.078 145.68C318.118 140.827 323.812 138.4 330.158 138.4C335.198 138.4 339.212 139.987 342.198 143.16C345.372 146.333 346.958 150.347 346.958 155.2C346.958 161.733 344.532 167.427 339.678 172.28C334.825 176.947 329.225 179.28 322.878 179.28ZM334.918 199.72L307.758 354H275.838L302.998 199.72H334.918ZM455.227 197.2C471.467 197.2 484.347 201.587 493.867 210.36C503.573 218.947 508.427 231.36 508.427 247.6C508.427 251.707 507.96 256.84 507.027 263L490.787 354H459.147L474.547 267.76C475.293 262.533 475.667 258.8 475.667 256.56C475.667 246.293 472.773 238.453 466.987 233.04C461.387 227.627 453.547 224.92 443.467 224.92C431.333 224.92 421.067 228.653 412.667 236.12C404.453 243.4 399.227 253.947 396.987 267.76V266.92L381.587 354H349.667L376.827 199.72H408.747L405.667 217.64C412.013 211.293 419.48 206.347 428.067 202.8C436.84 199.067 445.893 197.2 455.227 197.2ZM578.543 179.28C573.503 179.28 569.396 177.693 566.222 174.52C563.049 171.347 561.463 167.333 561.463 162.48C561.463 155.947 563.889 150.347 568.743 145.68C573.783 140.827 579.476 138.4 585.823 138.4C590.863 138.4 594.876 139.987 597.863 143.16C601.036 146.333 602.623 150.347 602.623 155.2C602.623 161.733 600.196 167.427 595.343 172.28C590.489 176.947 584.889 179.28 578.543 179.28ZM558.103 384.24C555.489 399.36 549.796 410.28 541.023 417C532.249 423.907 520.676 427.36 506.302 427.36H489.782L494.542 400.48H505.462C511.996 400.48 516.849 399.173 520.022 396.56C523.196 394.133 525.249 390.027 526.183 384.24L558.663 199.72H590.583L558.103 384.24ZM699.411 197.2C718.637 197.2 733.944 202.613 745.331 213.44C756.904 224.267 762.691 238.827 762.691 257.12C762.691 261.413 762.224 266.547 761.291 272.52C760.544 276.627 759.237 281.667 757.371 287.64H639.491C639.304 288.947 639.211 290.907 639.211 293.52C639.211 304.533 642.571 313.307 649.291 319.84C656.197 326.373 665.157 329.64 676.171 329.64C693.531 329.64 706.877 322.453 716.211 308.08H750.651C743.557 322.267 733.104 333.933 719.291 343.08C705.477 352.04 689.517 356.52 671.411 356.52C658.531 356.52 647.237 354 637.531 348.96C627.824 343.92 620.264 336.733 614.851 327.4C609.437 317.88 606.731 306.773 606.731 294.08C606.731 288.667 607.291 282.88 608.411 276.72C611.211 260.853 616.904 246.947 625.491 235C634.077 222.867 644.717 213.533 657.411 207C670.291 200.467 684.291 197.2 699.411 197.2ZM729.371 264.68C729.744 261.32 729.931 258.893 729.931 257.4C729.931 247.133 726.477 239.013 719.571 233.04C712.851 227.067 704.077 224.08 693.251 224.08C681.864 224.08 671.597 227.72 662.451 235C653.304 242.28 647.051 252.173 643.691 264.68H729.371ZM781.223 276.72C784.023 260.853 789.623 246.947 798.023 235C806.61 222.867 817.156 213.533 829.663 207C842.356 200.467 856.076 197.2 870.823 197.2C889.49 197.2 904.143 201.68 914.783 210.64C925.423 219.413 931.49 232.013 932.983 248.44H898.543C897.05 240.787 893.596 234.813 888.183 230.52C882.77 226.227 875.396 224.08 866.063 224.08C852.996 224.08 841.796 228.747 832.463 238.08C823.13 247.227 816.97 260.107 813.983 276.72C813.05 282.693 812.583 287.547 812.583 291.28C812.583 303.6 815.663 313.12 821.823 319.84C827.983 326.373 836.57 329.64 847.583 329.64C866.063 329.64 879.69 321.52 888.463 305.28H922.903C915.623 320.96 904.983 333.467 890.983 342.8C877.17 351.947 861.116 356.52 842.823 356.52C823.41 356.52 808.01 351.013 796.623 340C785.236 328.8 779.543 313.68 779.543 294.64C779.543 288.853 780.103 282.88 781.223 276.72ZM990.834 311.16C990.46 313.773 990.274 315.453 990.274 316.2C990.274 320.12 991.487 323.013 993.914 324.88C996.34 326.56 1000.35 327.4 1005.95 327.4H1025.55L1020.79 354H995.594C983.274 354 973.847 351.573 967.314 346.72C960.78 341.68 957.514 333.747 957.514 322.92C957.514 318.813 957.887 314.893 958.634 311.16L973.754 225.76H955.554L960.034 199.72H978.514L985.234 161.36H1017.43L1010.71 199.72H1047.95L1043.47 225.76H1005.95L990.834 311.16ZM1117.69 356.52C1104.63 356.52 1093.15 353.813 1083.25 348.4C1073.36 342.987 1065.61 335.333 1060.01 325.44C1054.6 315.547 1051.89 304.253 1051.89 291.56C1051.89 274.2 1055.91 258.333 1063.93 243.96C1072.15 229.587 1083.35 218.2 1097.53 209.8C1111.91 201.4 1127.87 197.2 1145.41 197.2C1158.48 197.2 1170.05 200 1180.13 205.6C1190.21 211.013 1198.05 218.667 1203.65 228.56C1209.44 238.267 1212.33 249.56 1212.33 262.44C1212.33 279.8 1208.13 295.667 1199.73 310.04C1191.33 324.413 1179.95 335.8 1165.57 344.2C1151.2 352.413 1135.24 356.52 1117.69 356.52ZM1121.61 329.64C1132.25 329.64 1141.96 326.653 1150.73 320.68C1159.69 314.52 1166.69 306.493 1171.73 296.6C1176.77 286.52 1179.29 275.787 1179.29 264.4C1179.29 251.52 1175.65 241.627 1168.37 234.72C1161.09 227.627 1151.95 224.08 1140.93 224.08C1130.11 224.08 1120.4 227.16 1111.81 233.32C1103.41 239.293 1096.79 247.413 1091.93 257.68C1087.27 267.76 1084.93 278.587 1084.93 290.16C1084.93 302.667 1088.29 312.373 1095.01 319.28C1101.92 326.187 1110.79 329.64 1121.61 329.64ZM1283.09 226.88C1289.43 217.547 1296.9 210.267 1305.49 205.04C1314.26 199.813 1323.97 197.2 1334.61 197.2L1328.73 230.24H1320.61C1308.29 230.24 1298.39 233.32 1290.93 239.48C1283.46 245.64 1278.23 256.28 1275.25 271.4L1260.69 354H1228.77L1255.93 199.72H1287.85L1283.09 226.88Z"/>
</mask>
<path d="M178.731 256.84L171.821 249.612L165.579 255.579L170.573 262.623L178.731 256.84ZM247.611 354V364H266.958L255.769 348.217L247.611 354ZM205.891 354L197.653 359.669L200.633 364H205.891V354ZM145.971 266.92L154.209 261.251L140.374 241.145L136.124 265.179L145.971 266.92ZM130.571 354V364H138.958L140.418 355.741L130.571 354ZM98.6509 354L88.804 352.257L86.7258 364H98.6509V354ZM133.091 159.4V149.4H124.705L123.244 157.657L133.091 159.4ZM165.011 159.4L174.858 161.14L176.932 149.4H165.011V159.4ZM149.331 248.16L139.483 246.42L134.095 276.924L156.302 255.329L149.331 248.16ZM240.611 159.4V149.4H236.551L233.64 152.231L240.611 159.4ZM280.651 159.4L287.561 166.628L305.582 149.4H280.651V159.4ZM170.573 262.623L239.453 359.783L255.769 348.217L186.889 251.057L170.573 262.623ZM247.611 344H205.891V364H247.611V344ZM214.129 348.331L154.209 261.251L137.733 272.589L197.653 359.669L214.129 348.331ZM136.124 265.179L120.724 352.259L140.418 355.741L155.818 268.661L136.124 265.179ZM130.571 344H98.6509V364H130.571V344ZM108.498 355.743L142.938 161.143L123.244 157.657L88.804 352.257L108.498 355.743ZM133.091 169.4H165.011V149.4H133.091V169.4ZM155.163 157.66L139.483 246.42L159.178 249.9L174.858 161.14L155.163 157.66ZM156.302 255.329L247.582 166.569L233.64 152.231L142.36 240.991L156.302 255.329ZM240.611 169.4H280.651V149.4H240.611V169.4ZM273.741 152.172L171.821 249.612L185.641 264.068L287.561 166.628L273.741 152.172ZM310.558 174.52L303.487 181.591L303.487 181.591L310.558 174.52ZM313.078 145.68L320.01 152.888L320.015 152.883L313.078 145.68ZM342.198 143.16L334.916 150.014L335.02 150.124L335.127 150.231L342.198 143.16ZM339.678 172.28L346.61 179.488L346.68 179.42L346.75 179.351L339.678 172.28ZM334.918 199.72L344.767 201.454L346.833 189.72H334.918V199.72ZM307.758 354V364H316.152L317.607 355.734L307.758 354ZM275.838 354L265.99 352.266L263.924 364H275.838V354ZM302.998 199.72V189.72H294.605L293.15 197.986L302.998 199.72ZM322.878 169.28C320.134 169.28 318.69 168.509 317.63 167.449L303.487 181.591C308.774 186.878 315.543 189.28 322.878 189.28V169.28ZM317.63 167.449C316.494 166.313 315.798 164.92 315.798 162.48H295.798C295.798 169.747 298.277 176.38 303.487 181.591L317.63 167.449ZM315.798 162.48C315.798 158.759 317.05 155.734 320.01 152.888L306.147 138.472C299.401 144.959 295.798 153.134 295.798 162.48H315.798ZM320.015 152.883C323.4 149.624 326.674 148.4 330.158 148.4V128.4C320.949 128.4 312.837 132.03 306.142 138.477L320.015 152.883ZM330.158 148.4C332.913 148.4 334.12 149.168 334.916 150.014L349.48 136.306C344.303 130.806 337.484 128.4 330.158 128.4V148.4ZM335.127 150.231C336.263 151.367 336.958 152.76 336.958 155.2H356.958C356.958 147.933 354.48 141.3 349.27 136.089L335.127 150.231ZM336.958 155.2C336.958 158.936 335.691 162.125 332.607 165.209L346.75 179.351C353.373 172.728 356.958 164.531 356.958 155.2H336.958ZM332.747 165.072C329.632 168.067 326.472 169.28 322.878 169.28V189.28C331.978 189.28 340.018 185.826 346.61 179.488L332.747 165.072ZM325.07 197.986L297.91 352.266L317.607 355.734L344.767 201.454L325.07 197.986ZM307.758 344H275.838V364H307.758V344ZM285.687 355.734L312.847 201.454L293.15 197.986L265.99 352.266L285.687 355.734ZM302.998 209.72H334.918V189.72H302.998V209.72ZM493.867 210.36L487.09 217.714L487.165 217.783L487.241 217.85L493.867 210.36ZM507.027 263L516.871 264.757L516.894 264.628L516.914 264.498L507.027 263ZM490.787 354V364H499.16L500.631 355.757L490.787 354ZM459.147 354L449.302 352.242L447.203 364H459.147V354ZM474.547 267.76L484.391 269.518L484.421 269.347L484.446 269.174L474.547 267.76ZM466.987 233.04L460.036 240.23L460.095 240.287L460.155 240.343L466.987 233.04ZM412.667 236.12L419.3 243.603L419.31 243.594L412.667 236.12ZM396.987 267.76H386.987L406.858 269.361L396.987 267.76ZM396.987 266.92H406.987L387.139 265.179L396.987 266.92ZM381.587 354V364H389.973L391.434 355.741L381.587 354ZM349.667 354L339.818 352.266L337.752 364H349.667V354ZM376.827 199.72V189.72H368.433L366.978 197.986L376.827 199.72ZM408.747 199.72L418.602 201.414L420.612 189.72H408.747V199.72ZM405.667 217.64L395.811 215.946L390.479 246.97L412.738 224.711L405.667 217.64ZM428.067 202.8L431.884 212.043L431.933 212.022L431.982 212.002L428.067 202.8ZM455.227 207.2C469.621 207.2 479.854 211.045 487.09 217.714L500.643 203.006C488.84 192.128 473.312 187.2 455.227 187.2V207.2ZM487.241 217.85C494.279 224.076 498.427 233.444 498.427 247.6H518.427C518.427 229.276 512.867 213.817 500.492 202.87L487.241 217.85ZM498.427 247.6C498.427 251.02 498.032 255.612 497.139 261.502L516.914 264.498C517.888 258.068 518.427 252.394 518.427 247.6H498.427ZM497.182 261.243L480.942 352.243L500.631 355.757L516.871 264.757L497.182 261.243ZM490.787 344H459.147V364H490.787V344ZM468.991 355.758L484.391 269.518L464.702 266.002L449.302 352.242L468.991 355.758ZM484.446 269.174C485.194 263.936 485.667 259.579 485.667 256.56H465.667C465.667 258.021 465.392 261.131 464.647 266.346L484.446 269.174ZM485.667 256.56C485.667 244.389 482.18 233.56 473.818 225.737L460.155 240.343C463.366 243.347 465.667 248.198 465.667 256.56H485.667ZM473.937 225.85C465.971 218.15 455.348 214.92 443.467 214.92V234.92C451.745 234.92 456.802 237.103 460.036 240.23L473.937 225.85ZM443.467 214.92C429.096 214.92 416.406 219.417 406.023 228.646L419.31 243.594C425.728 237.89 433.571 234.92 443.467 234.92V214.92ZM406.033 228.637C395.667 237.825 389.621 250.708 387.116 266.159L406.858 269.361C408.832 257.185 413.24 248.975 419.3 243.603L406.033 228.637ZM406.987 267.76V266.92H386.987V267.76H406.987ZM387.139 265.179L371.739 352.259L391.434 355.741L406.834 268.661L387.139 265.179ZM381.587 344H349.667V364H381.587V344ZM359.515 355.734L386.675 201.454L366.978 197.986L339.818 352.266L359.515 355.734ZM376.827 209.72H408.747V189.72H376.827V209.72ZM398.891 198.026L395.811 215.946L415.522 219.334L418.602 201.414L398.891 198.026ZM412.738 224.711C418.121 219.328 424.471 215.105 431.884 212.043L424.249 193.557C414.489 197.589 405.906 203.259 398.595 210.569L412.738 224.711ZM431.982 212.002C439.545 208.783 447.268 207.2 455.227 207.2V187.2C444.518 187.2 434.135 189.35 424.151 193.598L431.982 212.002ZM566.222 174.52L559.151 181.591L559.151 181.591L566.222 174.52ZM568.743 145.68L575.674 152.888L575.679 152.883L568.743 145.68ZM597.863 143.16L590.581 150.014L590.684 150.124L590.791 150.231L597.863 143.16ZM595.343 172.28L602.274 179.488L602.344 179.42L602.414 179.351L595.343 172.28ZM558.103 384.24L548.254 382.506L548.251 382.522L548.249 382.537L558.103 384.24ZM541.023 417L534.942 409.061L534.889 409.102L534.837 409.143L541.023 417ZM489.782 427.36L479.936 425.616L477.856 437.36H489.782V427.36ZM494.542 400.48V390.48H486.158L484.696 398.736L494.542 400.48ZM520.022 396.56L513.948 388.616L513.805 388.726L513.665 388.841L520.022 396.56ZM526.183 384.24L516.334 382.506L516.321 382.577L516.31 382.648L526.183 384.24ZM558.663 199.72V189.72H550.269L548.814 197.986L558.663 199.72ZM590.583 199.72L600.431 201.454L602.496 189.72H590.583V199.72ZM578.543 169.28C575.798 169.28 574.354 168.509 573.294 167.449L559.151 181.591C564.438 186.878 571.207 189.28 578.543 189.28V169.28ZM573.294 167.449C572.158 166.313 571.463 164.92 571.463 162.48H551.463C551.463 169.747 553.941 176.38 559.151 181.591L573.294 167.449ZM571.463 162.48C571.463 158.759 572.714 155.734 575.674 152.888L561.811 138.472C555.065 144.959 551.463 153.134 551.463 162.48H571.463ZM575.679 152.883C579.064 149.624 582.338 148.4 585.823 148.4V128.4C576.613 128.4 568.501 132.03 561.806 138.477L575.679 152.883ZM585.823 148.4C588.577 148.4 589.784 149.168 590.581 150.014L605.145 136.306C599.967 130.806 593.148 128.4 585.823 128.4V148.4ZM590.791 150.231C591.927 151.367 592.623 152.76 592.623 155.2H612.623C612.623 147.933 610.144 141.3 604.934 136.089L590.791 150.231ZM592.623 155.2C592.623 158.936 591.355 162.125 588.271 165.209L602.414 179.351C609.037 172.728 612.623 164.531 612.623 155.2H592.623ZM588.411 165.072C585.296 168.067 582.136 169.28 578.543 169.28V189.28C587.642 189.28 595.682 185.826 602.274 179.488L588.411 165.072ZM548.249 382.537C545.896 396.147 541.054 404.379 534.942 409.061L547.103 424.939C558.537 416.181 565.082 402.573 567.956 385.943L548.249 382.537ZM534.837 409.143C528.278 414.306 519.084 417.36 506.302 417.36V437.36C522.268 437.36 536.22 433.508 547.208 424.857L534.837 409.143ZM506.302 417.36H489.782V437.36H506.302V417.36ZM499.629 429.104L504.389 402.224L484.696 398.736L479.936 425.616L499.629 429.104ZM494.542 410.48H505.462V390.48H494.542V410.48ZM505.462 410.48C513.032 410.48 520.627 409.017 526.38 404.279L513.665 388.841C513.071 389.33 510.96 390.48 505.462 390.48V410.48ZM526.097 404.504C532.078 399.93 534.902 392.977 536.055 385.832L516.31 382.648C515.596 387.076 514.313 388.337 513.948 388.616L526.097 404.504ZM536.031 385.974L568.511 201.454L548.814 197.986L516.334 382.506L536.031 385.974ZM558.663 209.72H590.583V189.72H558.663V209.72ZM580.734 197.986L548.254 382.506L567.951 385.974L600.431 201.454L580.734 197.986ZM745.331 213.44L738.44 220.687L738.469 220.715L738.499 220.743L745.331 213.44ZM761.291 272.52L771.129 274.309L771.152 274.187L771.171 274.064L761.291 272.52ZM757.371 287.64V297.64H764.723L766.915 290.623L757.371 287.64ZM639.491 287.64V277.64H630.818L629.591 286.226L639.491 287.64ZM649.291 319.84L642.32 327.01L642.369 327.058L642.419 327.105L649.291 319.84ZM716.211 308.08V298.08H710.781L707.824 302.634L716.211 308.08ZM750.651 308.08L759.595 312.552L766.831 298.08H750.651V308.08ZM719.291 343.08L724.733 351.47L724.772 351.444L724.812 351.418L719.291 343.08ZM637.531 348.96L642.139 340.085L642.139 340.085L637.531 348.96ZM614.851 327.4L606.158 332.343L606.179 332.38L606.2 332.417L614.851 327.4ZM608.411 276.72L618.249 278.509L618.254 278.483L618.258 278.458L608.411 276.72ZM625.491 235L633.611 240.836L633.632 240.807L633.653 240.777L625.491 235ZM657.411 207L652.887 198.082L652.86 198.095L652.834 198.109L657.411 207ZM729.371 264.68V274.68H738.321L739.309 265.784L729.371 264.68ZM719.571 233.04L712.927 240.514L712.978 240.559L713.029 240.604L719.571 233.04ZM643.691 264.68L634.033 262.085L630.649 274.68H643.691V264.68ZM699.411 207.2C716.678 207.2 729.309 212.005 738.44 220.687L752.221 206.193C738.579 193.222 720.597 187.2 699.411 187.2V207.2ZM738.499 220.743C747.733 229.381 752.691 241.127 752.691 257.12H772.691C772.691 236.526 766.075 219.152 752.162 206.137L738.499 220.743ZM752.691 257.12C752.691 260.735 752.294 265.325 751.411 270.976L771.171 274.064C772.154 267.768 772.691 262.091 772.691 257.12H752.691ZM751.452 270.731C750.805 274.289 749.624 278.903 747.826 284.657L766.915 290.623C768.851 284.43 770.283 278.965 771.129 274.309L751.452 270.731ZM757.371 277.64H639.491V297.64H757.371V277.64ZM629.591 286.226C629.301 288.259 629.211 290.797 629.211 293.52H649.211C649.211 291.016 649.307 289.634 649.39 289.054L629.591 286.226ZM629.211 293.52C629.211 306.723 633.325 318.265 642.32 327.01L656.261 312.67C651.817 308.349 649.211 302.344 649.211 293.52H629.211ZM642.419 327.105C651.475 335.672 663.036 339.64 676.171 339.64V319.64C667.279 319.64 660.919 317.075 656.163 312.575L642.419 327.105ZM676.171 339.64C696.864 339.64 713.391 330.784 724.598 313.526L707.824 302.634C700.363 314.123 690.197 319.64 676.171 319.64V339.64ZM716.211 318.08H750.651V298.08H716.211V318.08ZM741.706 303.608C735.432 316.157 726.191 326.517 713.77 334.742L724.812 351.418C740.017 341.349 751.683 328.376 759.595 312.552L741.706 303.608ZM713.849 334.69C701.816 342.496 687.786 346.52 671.411 346.52V366.52C691.249 366.52 709.139 361.584 724.733 351.47L713.849 334.69ZM671.411 346.52C659.85 346.52 650.189 344.265 642.139 340.085L632.922 357.835C644.285 363.735 657.211 366.52 671.411 366.52V346.52ZM642.139 340.085C634.094 335.908 627.947 330.049 623.501 322.383L606.2 332.417C612.581 343.418 621.554 351.932 632.922 357.835L642.139 340.085ZM623.544 322.457C619.115 314.668 616.731 305.319 616.731 294.08H596.731C596.731 308.228 599.76 321.092 606.158 332.343L623.544 322.457ZM616.731 294.08C616.731 289.351 617.22 284.168 618.249 278.509L598.572 274.931C597.361 281.592 596.731 287.982 596.731 294.08H616.731ZM618.258 278.458C620.823 263.927 625.981 251.451 633.611 240.836L617.37 229.164C607.827 242.442 601.599 257.78 598.563 274.982L618.258 278.458ZM633.653 240.777C641.352 229.899 650.782 221.659 661.987 215.891L652.834 198.109C638.653 205.408 626.803 215.835 617.328 229.223L633.653 240.777ZM661.934 215.918C673.346 210.13 685.787 207.2 699.411 207.2V187.2C682.795 187.2 667.235 190.804 652.887 198.082L661.934 215.918ZM739.309 265.784C739.686 262.397 739.931 259.493 739.931 257.4H719.931C719.931 258.293 719.802 260.243 719.432 263.576L739.309 265.784ZM739.931 257.4C739.931 244.633 735.503 233.598 726.112 225.476L713.029 240.604C717.452 244.428 719.931 249.633 719.931 257.4H739.931ZM726.214 225.566C717.306 217.647 706.001 214.08 693.251 214.08V234.08C702.153 234.08 708.395 236.486 712.927 240.514L726.214 225.566ZM693.251 214.08C679.537 214.08 667.089 218.528 656.223 227.176L668.678 242.824C676.106 236.912 684.191 234.08 693.251 234.08V214.08ZM656.223 227.176C645.223 235.931 637.885 247.748 634.033 262.085L653.348 267.275C656.216 256.599 661.385 248.629 668.678 242.824L656.223 227.176ZM643.691 274.68H729.371V254.68H643.691V274.68ZM781.223 276.72L791.062 278.509L791.066 278.483L791.071 278.458L781.223 276.72ZM798.023 235L789.86 229.223L789.852 229.236L789.843 229.248L798.023 235ZM829.663 207L825.087 198.109L825.06 198.122L825.033 198.137L829.663 207ZM914.783 210.64L908.342 218.289L908.381 218.322L908.421 218.355L914.783 210.64ZM932.983 248.44V258.44H943.933L942.942 247.535L932.983 248.44ZM898.543 248.44L888.728 250.355L890.306 258.44H898.543V248.44ZM888.183 230.52L881.969 238.355L881.969 238.355L888.183 230.52ZM832.463 238.08L839.462 245.222L839.498 245.187L839.534 245.151L832.463 238.08ZM813.983 276.72L804.141 274.951L804.121 275.063L804.103 275.176L813.983 276.72ZM821.823 319.84L814.452 326.597L814.499 326.649L814.547 326.7L821.823 319.84ZM888.463 305.28V295.28H882.499L879.665 300.527L888.463 305.28ZM922.903 305.28L931.973 309.491L938.571 295.28H922.903V305.28ZM890.983 342.8L896.504 351.138L896.517 351.129L896.53 351.121L890.983 342.8ZM796.623 340L789.611 347.129L789.641 347.159L789.671 347.188L796.623 340ZM791.071 278.458C793.643 263.885 798.731 251.38 806.203 240.752L789.843 229.248C780.516 242.514 774.404 257.822 771.375 274.982L791.071 278.458ZM806.186 240.777C813.907 229.867 823.268 221.623 834.293 215.863L825.033 198.137C811.045 205.443 799.313 215.867 789.86 229.223L806.186 240.777ZM834.24 215.891C845.47 210.111 857.614 207.2 870.823 207.2V187.2C854.539 187.2 839.243 190.822 825.087 198.109L834.24 215.891ZM870.823 207.2C887.943 207.2 900.04 211.298 908.342 218.289L921.224 202.991C908.246 192.062 891.036 187.2 870.823 187.2V207.2ZM908.421 218.355C916.605 225.103 921.722 235.018 923.024 249.345L942.942 247.535C941.258 229.008 934.242 213.724 921.145 202.925L908.421 218.355ZM932.983 238.44H898.543V258.44H932.983V238.44ZM908.358 246.525C906.471 236.853 901.919 228.651 894.397 222.685L881.969 238.355C885.274 240.976 887.629 244.721 888.728 250.355L908.358 246.525ZM894.397 222.685C886.684 216.568 876.865 214.08 866.063 214.08V234.08C873.928 234.08 878.855 235.885 881.969 238.355L894.397 222.685ZM866.063 214.08C850.314 214.08 836.579 219.822 825.392 231.009L839.534 245.151C847.014 237.672 855.679 234.08 866.063 234.08V214.08ZM825.464 230.938C814.269 241.909 807.388 256.889 804.141 274.951L823.825 278.489C826.552 263.324 831.991 252.544 839.462 245.222L825.464 230.938ZM804.103 275.176C803.132 281.389 802.583 286.813 802.583 291.28H822.583C822.583 288.28 822.967 283.998 823.863 278.264L804.103 275.176ZM802.583 291.28C802.583 305.21 806.082 317.467 814.452 326.597L829.195 313.083C825.244 308.773 822.583 301.99 822.583 291.28H802.583ZM814.547 326.7C823.011 335.677 834.485 339.64 847.583 339.64V319.64C838.655 319.64 832.955 317.069 829.099 312.98L814.547 326.7ZM847.583 339.64C858.324 339.64 868.181 337.266 876.782 332.14C885.384 327.015 892.159 319.477 897.261 310.033L879.665 300.527C875.994 307.323 871.569 311.965 866.544 314.96C861.519 317.954 855.322 319.64 847.583 319.64V339.64ZM888.463 315.28H922.903V295.28H888.463V315.28ZM913.833 301.069C907.305 315.129 897.863 326.195 885.436 334.479L896.53 351.121C912.103 340.738 923.941 326.791 931.973 309.491L913.833 301.069ZM885.462 334.462C873.455 342.413 859.366 346.52 842.823 346.52V366.52C862.867 366.52 880.885 361.48 896.504 351.138L885.462 334.462ZM842.823 346.52C825.386 346.52 812.695 341.633 803.575 332.812L789.671 347.188C803.324 360.394 821.434 366.52 842.823 366.52V346.52ZM803.636 332.871C794.522 323.906 789.543 311.553 789.543 294.64H769.543C769.543 315.807 775.951 333.694 789.611 347.129L803.636 332.871ZM789.543 294.64C789.543 289.5 790.04 284.126 791.062 278.509L771.384 274.931C770.166 281.634 769.543 288.207 769.543 294.64H789.543ZM990.834 311.16L980.987 309.417L980.958 309.581L980.934 309.746L990.834 311.16ZM993.914 324.88L987.817 332.806L988.015 332.959L988.222 333.102L993.914 324.88ZM1025.55 327.4L1035.4 329.161L1037.5 317.4H1025.55V327.4ZM1020.79 354V364H1029.16L1030.64 355.761L1020.79 354ZM967.314 346.72L961.206 354.638L961.278 354.693L961.351 354.747L967.314 346.72ZM958.634 311.16L968.44 313.121L968.461 313.012L968.481 312.903L958.634 311.16ZM973.754 225.76L983.601 227.503L985.68 215.76H973.754V225.76ZM955.554 225.76L945.699 224.064L943.686 235.76H955.554V225.76ZM960.034 199.72V189.72H951.607L950.179 198.024L960.034 199.72ZM978.514 199.72V209.72H986.914L988.364 201.446L978.514 199.72ZM985.234 161.36V151.36H976.833L975.384 159.634L985.234 161.36ZM1017.43 161.36L1027.28 163.086L1029.34 151.36H1017.43V161.36ZM1010.71 199.72L1000.86 197.994L998.81 209.72H1010.71V199.72ZM1047.95 199.72L1057.81 201.416L1059.82 189.72H1047.95V199.72ZM1043.47 225.76V235.76H1051.9L1053.33 227.456L1043.47 225.76ZM1005.95 225.76V215.76H997.569L996.107 224.017L1005.95 225.76ZM980.934 309.746C980.59 312.155 980.274 314.598 980.274 316.2H1000.27C1000.27 316.377 1000.27 316.417 1000.28 316.232C1000.29 316.075 1000.31 315.832 1000.35 315.484C1000.43 314.788 1000.55 313.828 1000.73 312.574L980.934 309.746ZM980.274 316.2C980.274 322.271 982.261 328.533 987.817 332.806L1000.01 316.954C1000.08 317.009 1000.18 317.097 1000.26 317.213C1000.35 317.327 1000.39 317.416 1000.41 317.443C1000.42 317.485 1000.27 317.152 1000.27 316.2H980.274ZM988.222 333.102C993.256 336.587 999.873 337.4 1005.95 337.4V317.4C1003.61 317.4 1001.93 317.221 1000.79 316.982C999.618 316.736 999.383 316.504 999.606 316.658L988.222 333.102ZM1005.95 337.4H1025.55V317.4H1005.95V337.4ZM1015.71 325.639L1010.95 352.239L1030.64 355.761L1035.4 329.161L1015.71 325.639ZM1020.79 344H995.594V364H1020.79V344ZM995.594 344C984.378 344 977.403 341.758 973.277 338.693L961.351 354.747C970.291 361.389 982.17 364 995.594 364V344ZM973.422 338.802C970.069 336.216 967.514 331.697 967.514 322.92H947.514C947.514 335.797 951.492 347.144 961.206 354.638L973.422 338.802ZM967.514 322.92C967.514 319.421 967.832 316.16 968.44 313.121L948.828 309.199C947.942 313.626 947.514 318.206 947.514 322.92H967.514ZM968.481 312.903L983.601 227.503L963.907 224.017L948.787 309.417L968.481 312.903ZM973.754 215.76H955.554V235.76H973.754V215.76ZM965.409 227.456L969.889 201.416L950.179 198.024L945.699 224.064L965.409 227.456ZM960.034 209.72H978.514V189.72H960.034V209.72ZM988.364 201.446L995.084 163.086L975.384 159.634L968.664 197.994L988.364 201.446ZM985.234 171.36H1017.43V151.36H985.234V171.36ZM1007.58 159.634L1000.86 197.994L1020.56 201.446L1027.28 163.086L1007.58 159.634ZM1010.71 209.72H1047.95V189.72H1010.71V209.72ZM1038.1 198.024L1033.62 224.064L1053.33 227.456L1057.81 201.416L1038.1 198.024ZM1043.47 215.76H1005.95V235.76H1043.47V215.76ZM996.107 224.017L980.987 309.417L1000.68 312.903L1015.8 227.503L996.107 224.017ZM1083.25 348.4L1078.45 357.173L1078.45 357.173L1083.25 348.4ZM1060.01 325.44L1051.24 330.24L1051.28 330.303L1051.31 330.366L1060.01 325.44ZM1063.93 243.96L1055.25 238.999L1055.23 239.041L1055.2 239.084L1063.93 243.96ZM1097.53 209.8L1092.49 201.166L1092.46 201.181L1092.44 201.195L1097.53 209.8ZM1180.13 205.6L1175.28 214.342L1175.34 214.376L1175.4 214.41L1180.13 205.6ZM1203.65 228.56L1194.95 233.486L1195.01 233.584L1195.06 233.681L1203.65 228.56ZM1199.73 310.04L1208.37 315.086L1208.37 315.086L1199.73 310.04ZM1165.57 344.2L1170.53 352.882L1170.58 352.858L1170.62 352.834L1165.57 344.2ZM1150.73 320.68L1156.36 328.946L1156.38 328.933L1156.4 328.92L1150.73 320.68ZM1171.73 296.6L1180.64 301.139L1180.66 301.106L1180.68 301.072L1171.73 296.6ZM1168.37 234.72L1161.39 241.882L1161.44 241.929L1161.49 241.975L1168.37 234.72ZM1111.81 233.32L1117.61 241.47L1117.63 241.457L1117.64 241.445L1111.81 233.32ZM1091.93 257.68L1082.89 253.406L1082.88 253.442L1082.86 253.479L1091.93 257.68ZM1095.01 319.28L1087.85 326.254L1087.89 326.303L1087.94 326.351L1095.01 319.28ZM1117.69 346.52C1106.04 346.52 1096.26 344.116 1088.05 339.627L1078.45 357.173C1090.04 363.511 1103.22 366.52 1117.69 366.52V346.52ZM1088.05 339.627C1079.81 335.115 1073.41 328.801 1068.72 320.514L1051.31 330.366C1057.82 341.866 1066.91 350.858 1078.45 357.173L1088.05 339.627ZM1068.79 320.64C1064.27 312.395 1061.89 302.79 1061.89 291.56H1041.89C1041.89 305.717 1044.93 318.698 1051.24 330.24L1068.79 320.64ZM1061.89 291.56C1061.89 275.81 1065.52 261.637 1072.66 248.836L1055.2 239.084C1046.3 255.03 1041.89 272.589 1041.89 291.56H1061.89ZM1072.62 248.921C1079.97 236.046 1089.94 225.918 1102.63 218.405L1092.44 201.195C1076.75 210.482 1064.32 223.127 1055.25 238.999L1072.62 248.921ZM1102.58 218.434C1115.34 210.977 1129.54 207.2 1145.41 207.2V187.2C1126.19 187.2 1108.48 191.823 1092.49 201.166L1102.58 218.434ZM1145.41 207.2C1157.01 207.2 1166.87 209.672 1175.28 214.342L1184.99 196.858C1173.24 190.328 1159.95 187.2 1145.41 187.2V207.2ZM1175.4 214.41C1183.83 218.936 1190.29 225.248 1194.95 233.486L1212.36 223.634C1205.82 212.086 1196.6 203.091 1184.86 196.79L1175.4 214.41ZM1195.06 233.681C1199.8 241.632 1202.33 251.106 1202.33 262.44H1222.33C1222.33 248.014 1219.08 234.901 1212.24 223.439L1195.06 233.681ZM1202.33 262.44C1202.33 278.106 1198.57 292.219 1191.1 304.994L1208.37 315.086C1217.7 299.114 1222.33 281.494 1222.33 262.44H1202.33ZM1191.1 304.994C1183.57 317.883 1173.42 328.034 1160.53 335.566L1170.62 352.834C1186.48 343.566 1199.1 330.944 1208.37 315.086L1191.1 304.994ZM1160.61 335.518C1147.84 342.815 1133.61 346.52 1117.69 346.52V366.52C1136.87 366.52 1154.56 362.011 1170.53 352.882L1160.61 335.518ZM1121.61 339.64C1134.26 339.64 1145.92 336.052 1156.36 328.946L1145.11 312.414C1138 317.255 1130.25 319.64 1121.61 319.64V339.64ZM1156.4 328.92C1166.76 321.796 1174.86 312.485 1180.64 301.139L1162.82 292.061C1158.52 300.502 1152.63 307.244 1145.07 312.44L1156.4 328.92ZM1180.68 301.072C1186.42 289.589 1189.29 277.322 1189.29 264.4H1169.29C1169.29 274.251 1167.13 283.451 1162.79 292.128L1180.68 301.072ZM1189.29 264.4C1189.29 249.598 1185.05 236.759 1175.26 227.465L1161.49 241.975C1166.25 246.494 1169.29 253.442 1169.29 264.4H1189.29ZM1175.35 227.558C1166.04 218.484 1154.31 214.08 1140.93 214.08V234.08C1149.58 234.08 1156.15 236.769 1161.39 241.882L1175.35 227.558ZM1140.93 214.08C1128.07 214.08 1116.31 217.784 1105.98 225.195L1117.64 241.445C1124.49 236.536 1132.14 234.08 1140.93 234.08V214.08ZM1106.02 225.17C1096.08 232.235 1088.4 241.752 1082.89 253.406L1100.97 261.954C1105.17 253.074 1110.74 246.352 1117.61 241.47L1106.02 225.17ZM1082.86 253.479C1077.56 264.931 1074.93 277.198 1074.93 290.16H1094.93C1094.93 279.975 1096.98 270.589 1101.01 261.881L1082.86 253.479ZM1074.93 290.16C1074.93 304.466 1078.82 316.973 1087.85 326.254L1102.18 312.306C1097.77 307.774 1094.93 300.868 1094.93 290.16H1074.93ZM1087.94 326.351C1096.94 335.345 1108.45 339.64 1121.61 339.64V319.64C1113.12 319.64 1106.9 317.028 1102.08 312.209L1087.94 326.351ZM1283.09 226.88L1273.24 225.154L1291.36 232.503L1283.09 226.88ZM1305.49 205.04L1300.37 196.449L1300.33 196.473L1300.29 196.498L1305.49 205.04ZM1334.61 197.2L1344.45 198.952L1346.54 187.2H1334.61V197.2ZM1328.73 230.24V240.24H1337.11L1338.57 231.992L1328.73 230.24ZM1290.93 239.48L1297.29 247.194L1297.29 247.194L1290.93 239.48ZM1275.25 271.4L1265.44 269.462L1265.42 269.563L1265.4 269.664L1275.25 271.4ZM1260.69 354V364H1269.08L1270.54 355.736L1260.69 354ZM1228.77 354L1218.92 352.266L1216.85 364H1228.77V354ZM1255.93 199.72V189.72H1247.53L1246.08 197.986L1255.93 199.72ZM1287.85 199.72L1297.7 201.446L1299.75 189.72H1287.85V199.72ZM1291.36 232.503C1297 224.205 1303.46 217.98 1310.69 213.582L1300.29 196.498C1290.34 202.554 1281.87 210.888 1274.82 221.257L1291.36 232.503ZM1310.61 213.631C1317.77 209.366 1325.69 207.2 1334.61 207.2V187.2C1322.25 187.2 1310.76 190.261 1300.37 196.449L1310.61 213.631ZM1324.76 195.448L1318.88 228.488L1338.57 231.992L1344.45 198.952L1324.76 195.448ZM1328.73 220.24H1320.61V240.24H1328.73V220.24ZM1320.61 220.24C1306.61 220.24 1294.26 223.763 1284.56 231.766L1297.29 247.194C1302.52 242.877 1309.96 240.24 1320.61 240.24V220.24ZM1284.56 231.766C1274.53 240.045 1268.62 253.335 1265.44 269.462L1285.06 273.338C1287.85 259.225 1292.39 251.235 1297.29 247.194L1284.56 231.766ZM1265.4 269.664L1250.84 352.264L1270.54 355.736L1285.1 273.136L1265.4 269.664ZM1260.69 344H1228.77V364H1260.69V344ZM1238.62 355.734L1265.78 201.454L1246.08 197.986L1218.92 352.266L1238.62 355.734ZM1255.93 209.72H1287.85V189.72H1255.93V209.72ZM1278 197.994L1273.24 225.154L1292.94 228.606L1297.7 201.446L1278 197.994Z" fill="url(#paint0_linear_11_6)" mask="url(#path-1-outside-1_11_6)"/>
</g>
<defs>
<filter id="filter0_d_11_6" x="84.0509" y="123.8" width="1265.16" height="318.16" filterUnits="userSpaceOnUse" color-interpolation-filters="sRGB">
<feFlood flood-opacity="0" result="BackgroundImageFix"/>
<feColorMatrix in="SourceAlpha" type="matrix" values="0 0 0 0 0 0 0 0 0 0 0 0 0 0 0 0 0 0 127 0" result="hardAlpha"/>
<feOffset/>
<feGaussianBlur stdDeviation="7.3"/>
<feColorMatrix type="matrix" values="0 0 0 0 0.57125 0 0 0 0 1 0 0 0 0 0.5625 0 0 0 1 0"/>
<feBlend mode="normal" in2="BackgroundImageFix" result="effect1_dropShadow_11_6"/>
<feBlend mode="normal" in="SourceGraphic" in2="effect1_dropShadow_11_6" result="shape"/>
</filter>
<linearGradient id="paint0_linear_11_6" x1="92" y1="256" x2="1330" y2="256" gradientUnits="userSpaceOnUse">
<stop stop-color="#92FF8F"/>
<stop offset="1" stop-color="#FFF8E8"/>
</linearGradient>
</defs>
</svg>
